<svg width="380" height="96" viewBox="0 0 380 96" fill="none" xmlns="http://www.w3.org/2000/svg">
  <path d="M42 8C22.1 8 6 24.1 6 44C6 70.8 39.4 90.5 40.8 91.3C41.5 91.7 42.5 91.7 43.2 91.3C44.6 90.5 78 70.8 78 44C78 24.1 61.9 8 42 8ZM42 56.5C35.1 56.5 29.5 50.9 29.5 44C29.5 37.1 35.1 31.5 42 31.5C48.9 31.5 54.5 37.1 54.5 44C54.5 50.9 48.9 56.5 42 56.5Z" fill="#F97316"/>
  <circle cx="42" cy="44" r="6.8" fill="#FFFFFF"/>
  <text x="94" y="62" font-family="Inter, Arial, sans-serif" font-size="56" font-style="italic" font-weight="800">
    <tspan fill="#1F1B1B">Booq</tspan><tspan fill="#F97316">Dat</tspan>
  </text>
</svg>
